<svg width="1728" height="512" viewBox="0 0 1728 512" fill="none" xmlns="http://www.w3.org/2000/svg">
<g clip-path="url(#clip0_41_17)">
<path opacity="0.968" fill-rule="evenodd" clip-rule="evenodd" d="M-0.5 217.5C-0.5 203.5 -0.5 189.5 -0.5 175.5C1.39512 172.443 4.06178 170.277 7.5 169C21.2005 168.163 34.8671 168.496 48.5 170C62.0817 172.373 73.5817 178.54 83 188.5C86.3304 176.681 88.8304 164.681 90.5 152.5C47.2434 145.423 26.7434 120.09 29 76.5C31.1758 66.7966 33.5092 57.13 36 47.5C37.4932 41.5085 41.3265 38.1752 47.5 37.5C61.3897 40.5556 75.0564 44.389 88.5 49C114.96 64.085 126.46 86.9183 123 117.5C115.234 149.664 108.234 181.998 102 214.5C95.9554 277.245 119.789 324.745 173.5 357C192.167 365 210.833 373 229.5 381C232.766 383.536 234.1 386.869 233.5 391C232.704 406.583 229.871 421.749 225 436.5C209.751 464.375 186.251 476.208 154.5 472C145.744 471.156 137.077 469.823 128.5 468C124.208 464.913 122.542 460.746 123.5 455.5C124.19 441.166 126.69 427.166 131 413.5C137.896 396.938 149.729 385.438 166.5 379C156.833 374.504 147.833 369.004 139.5 362.5C132.834 365.831 126.501 369.664 120.5 374C92.2438 389.378 65.7438 386.878 41 366.5C30.4686 354.105 21.9686 340.439 15.5 325.5C15.9878 321.69 17.6545 318.523 20.5 316C29.8333 310.333 39.1667 304.667 48.5 299C60.9707 293.254 73.9707 291.421 87.5 293.5C84.8868 285.659 82.8868 277.659 81.5 269.5C52.1879 274.349 28.3546 265.349 10 242.5C5.01305 234.682 1.51305 226.349 -0.5 217.5ZM55.5 63.5C94.6214 70.3106 107.955 92.644 95.5 130.5C57.2948 123.097 43.9615 100.763 55.5 63.5ZM21.5 191.5C61.1667 189.167 79.8333 207.833 77.5 247.5C58.5316 250.146 42.6982 244.48 30 230.5C24.9409 223.323 22.2743 215.323 22 206.5C21.5007 201.511 21.3341 196.511 21.5 191.5ZM71.5 315.5C87.2412 314.688 100.075 320.354 110 332.5C113.26 337.362 115.926 342.362 118 347.5C86.3496 369.879 61.5163 363.879 43.5 329.5C51.8359 322.665 61.1692 317.999 71.5 315.5ZM186.5 397.5C193.856 398.077 201.189 398.91 208.5 400C209.788 428.886 196.122 445.719 167.5 450.5C161.186 449.558 154.853 448.724 148.5 448C147.039 420.319 159.706 403.486 186.5 397.5Z" fill="#33CCCC"/>
<path opacity="0.968" fill-rule="evenodd" clip-rule="evenodd" d="M511.5 175.5C511.5 189.5 511.5 203.5 511.5 217.5C504.681 245.152 487.347 262.319 459.5 269C449.506 269.5 439.506 269.666 429.5 269.5C428.439 277.077 426.439 284.41 423.5 291.5C437.292 290.298 450.625 292.465 463.5 298C473.935 304.105 484.101 310.605 494 317.5C496.994 322.928 496.661 328.261 493 333.5C485.419 347.42 475.919 359.92 464.5 371C444.67 383.87 423.67 386.203 401.5 378C391.508 373.006 381.842 367.506 372.5 361.5C364.008 368.585 354.674 374.418 344.5 379C366.072 388.246 379.239 404.413 384 427.5C386.405 439.065 387.405 450.732 387 462.5C385.878 464.624 384.378 466.457 382.5 468C369.755 470.364 356.922 472.197 344 473.5C309.724 470.885 288.724 452.885 281 419.5C279.007 408.229 278.007 396.896 278 385.5C278.785 383.714 279.951 382.214 281.5 381C298.67 373.277 316.003 365.943 333.5 359C382.218 332.403 407.885 291.236 410.5 235.5C410.499 228.46 409.999 221.46 409 214.5C401.813 178.397 394.313 142.397 386.5 106.5C388.586 75.4459 404.253 54.9459 433.5 45C443.51 42.4974 453.51 39.9974 463.5 37.5C469.674 38.1752 473.507 41.5085 475 47.5C479.1 60.5603 481.6 73.8937 482.5 87.5C481.233 116.936 466.9 137.103 439.5 148C433.189 149.661 426.856 151.161 420.5 152.5C422.17 164.681 424.67 176.681 428 188.5C437.418 178.54 448.918 172.373 462.5 170C477.201 168.099 491.868 168.099 506.5 170C508.402 171.73 510.069 173.563 511.5 175.5ZM452.5 63.5C453.5 63.5 454.5 63.5 455.5 63.5C467.039 100.763 453.705 123.097 415.5 130.5C403.136 94.2117 415.469 71.8783 452.5 63.5ZM469.5 191.5C476.167 191.5 482.833 191.5 489.5 191.5C492.146 210.468 486.48 226.302 472.5 239C465.323 244.059 457.323 246.726 448.5 247C443.511 247.499 438.511 247.666 433.5 247.5C431.93 234.463 434.096 222.129 440 210.5C447.215 199.983 457.049 193.649 469.5 191.5ZM429.5 314.5C435.994 314.166 442.327 314.999 448.5 317C455.534 320.201 462.2 324.035 468.5 328.5C464.116 336.103 459.116 343.27 453.5 350C432.528 364.342 412.528 363.008 393.5 346C398.713 333.792 407.046 324.459 418.5 318C422.254 316.691 425.921 315.525 429.5 314.5ZM318.5 397.5C347.508 400.089 362.508 416.089 363.5 445.5C343.531 454.346 326.031 450.346 311 433.5C304.485 423.151 301.652 411.985 302.5 400C308.005 399.339 313.338 398.506 318.5 397.5Z" fill="#33CCCC"/>
<path opacity="0.963" fill-rule="evenodd" clip-rule="evenodd" d="M163.5 134.5C189.169 134.333 214.835 134.5 240.5 135C246.058 136.446 251.058 138.946 255.5 142.5C259.942 138.946 264.942 136.446 270.5 135C297.229 134.027 323.896 134.36 350.5 136C352.378 137.543 353.878 139.376 355 141.5C355.99 189.583 355.657 237.583 354 285.5C352.363 287.81 350.196 289.31 347.5 290C323.167 290.333 298.833 290.667 274.5 291C272.04 292.458 269.873 294.291 268 296.5C267.319 300.929 266.319 305.263 265 309.5C258.667 316.167 252.333 316.167 246 309.5C244.681 305.263 243.681 300.929 243 296.5C241.127 294.291 238.96 292.458 236.5 291C211.104 290.972 185.771 290.306 160.5 289C158.622 287.457 157.122 285.624 156 283.5C155.333 236.167 155.333 188.833 156 141.5C157.767 138.228 160.267 135.895 163.5 134.5ZM178.5 157.5C197.836 157.333 217.17 157.5 236.5 158C241.078 159.981 243.578 163.481 244 168.5C244.667 202.167 244.667 235.833 244 269.5C242.266 268.751 240.433 268.251 238.5 268C218.503 267.5 198.503 267.333 178.5 267.5C178.5 230.833 178.5 194.167 178.5 157.5ZM274.5 157.5C293.833 157.5 313.167 157.5 332.5 157.5C332.5 194.167 332.5 230.833 332.5 267.5C312.497 267.333 292.497 267.5 272.5 268C270.567 268.251 268.734 268.751 267 269.5C266.333 235.833 266.333 202.167 267 168.5C267.542 163.393 270.042 159.726 274.5 157.5Z" fill="#373737"/>
</g>
<path d="M613.059 184V117.169C613.059 113.456 612.523 110.486 611.45 108.258C610.46 105.948 608.109 104.793 604.396 104.793H601.921V102.317H613.059C615.947 102.317 618.175 102.689 619.742 103.431C621.392 104.174 622.547 105.618 623.208 107.763C623.868 109.908 624.198 113.043 624.198 117.169V139.446H661.326V102.317H672.465V169.149C672.465 172.861 672.96 175.873 673.95 178.183C675.022 180.411 677.415 181.525 681.128 181.525H683.603V184H672.465C669.577 184 667.308 183.629 665.658 182.886C664.09 182.144 662.976 180.7 662.316 178.554C661.656 176.409 661.326 173.274 661.326 169.149V144.396H624.198V184H613.059ZM698.746 208.752V205.039C702.542 205.039 705.76 204.173 708.4 202.44C711.123 200.79 713.474 197.325 715.454 192.044L717.929 185.238L698.128 136.971C696.89 133.835 695.075 131.484 692.682 129.916C690.372 128.349 687.649 127.4 684.514 127.07V124.595H695.034C698.746 124.595 701.799 125.461 704.192 127.194C706.667 128.926 708.565 131.36 709.885 134.495L723.994 168.777L739.588 125.832H745.776L721.642 192.044C719.992 196.582 718.218 200.048 716.321 202.44C714.505 204.833 712.443 206.483 710.132 207.391C707.905 208.298 705.347 208.752 702.459 208.752H698.746ZM760.092 207.515V140.683C760.092 136.971 759.555 134 758.483 131.773C757.493 129.462 755.141 128.307 751.428 128.307H748.953V125.832H760.092C763.227 125.832 765.578 126.286 767.146 127.194C768.796 128.101 769.951 129.504 770.611 131.401C772.261 129.751 774.489 128.225 777.294 126.822C780.1 125.337 783.647 124.595 787.938 124.595C792.888 124.595 797.014 125.956 800.314 128.679C803.614 131.401 806.09 135.073 807.74 139.693C809.39 144.231 810.215 149.306 810.215 154.916C810.215 160.444 809.349 165.518 807.616 170.139C805.966 174.759 803.408 178.431 799.943 181.153C796.477 183.876 792.063 185.238 786.7 185.238C783.235 185.238 780.265 184.825 777.789 184C775.314 183.257 773.128 182.432 771.23 181.525V207.515H760.092ZM782.987 180.287C786.7 180.287 789.67 179.173 791.898 176.946C794.208 174.635 795.859 171.583 796.849 167.787C797.921 163.909 798.458 159.619 798.458 154.916C798.458 150.131 797.963 145.84 796.972 142.045C795.982 138.25 794.415 135.238 792.269 133.01C790.207 130.7 787.525 129.545 784.225 129.545C780.842 129.545 778.119 130.329 776.057 131.896C773.994 133.382 772.385 135.073 771.23 136.971V176.574C773.128 177.482 775.067 178.348 777.047 179.173C779.11 179.916 781.09 180.287 782.987 180.287ZM820.438 185.238C819.778 185.238 818.746 185.114 817.344 184.866C816.024 184.619 815.034 184.371 814.373 184.124V181.03C816.354 181.03 818.293 180.535 820.19 179.545C822.17 178.472 823.903 176.533 825.388 173.728C826.956 170.84 828.193 166.756 829.101 161.475C830.009 156.112 830.462 149.182 830.462 140.683C830.462 136.971 829.926 134 828.854 131.773C827.863 129.462 825.471 128.307 821.675 128.307V125.832H871.923V184H860.784V130.783H839.002V140.683C839.002 149.924 838.466 157.474 837.393 163.332C836.403 169.19 835 173.728 833.185 176.946C831.453 180.081 829.472 182.267 827.245 183.505C825.017 184.66 822.748 185.238 820.438 185.238ZM903.593 185.238C901.86 185.238 899.963 184.949 897.9 184.371C895.92 183.876 893.981 182.969 892.083 181.649C890.185 180.328 888.618 178.554 887.38 176.327C886.225 174.099 885.647 171.294 885.647 167.911C885.647 163.373 887.091 159.867 889.979 157.391C892.949 154.916 896.827 153.183 901.613 152.193C906.481 151.121 911.679 150.584 917.207 150.584H920.919C920.919 144.809 920.342 140.436 919.187 137.466C918.032 134.413 916.464 132.35 914.484 131.278C912.586 130.123 910.4 129.545 907.925 129.545C904.459 129.545 901.53 130.288 899.137 131.773C896.827 133.258 895.218 136.022 894.311 140.065H888.742C888.742 137.919 888.865 135.939 889.113 134.124C889.36 132.226 890.268 130.494 891.836 128.926C893.403 127.359 895.961 126.245 899.509 125.585C903.057 124.925 906.687 124.595 910.4 124.595C913.205 124.595 915.887 124.925 918.444 125.585C921.084 126.245 923.395 127.482 925.375 129.297C927.438 131.03 929.046 133.629 930.202 137.094C931.439 140.477 932.058 144.974 932.058 150.584V184H925.87L921.538 178.431H920.919C919.682 179.998 917.66 181.525 914.855 183.01C912.05 184.495 908.296 185.238 903.593 185.238ZM909.162 179.668C912.215 179.668 914.608 178.926 916.34 177.441C918.155 175.873 919.682 174.14 920.919 172.243V155.535H917.207C911.019 155.535 906.151 156.69 902.603 159C899.137 161.228 897.405 164.198 897.405 167.911C897.405 171.954 898.601 174.924 900.994 176.822C903.387 178.72 906.109 179.668 909.162 179.668ZM951.049 184V140.683C951.049 136.971 950.512 134 949.44 131.773C948.45 129.462 946.098 128.307 942.385 128.307H940.529V125.832H951.049C953.936 125.832 956.164 126.203 957.732 126.946C959.382 127.689 960.537 129.132 961.197 131.278C961.857 133.423 962.187 136.558 962.187 140.683V152.441H986.939V125.832H998.078V169.149C998.078 172.861 998.573 175.873 999.563 178.183C1000.64 180.411 1003.03 181.525 1006.74 181.525H1008.6V184H998.078C995.19 184 992.921 183.629 991.271 182.886C989.703 182.144 988.59 180.7 987.93 178.554C987.269 176.409 986.939 173.274 986.939 169.149V157.391H962.187V184H951.049ZM1083.56 186.475C1075.73 186.475 1068.92 184.619 1063.14 180.906C1057.45 177.111 1053.04 172.036 1049.9 165.683C1046.77 159.248 1045.2 152.152 1045.2 144.396C1045.2 138.208 1046.19 132.433 1048.17 127.07C1050.15 121.624 1052.91 116.88 1056.46 112.837C1060.01 108.794 1064.09 105.618 1068.71 103.308C1073.33 100.997 1078.28 99.8422 1083.56 99.8422C1090.41 99.8422 1096.31 100.832 1101.26 102.813C1106.21 104.71 1109.8 107.02 1112.03 109.743C1113.6 111.641 1114.5 114.281 1114.75 117.664C1115 121.047 1115.12 124.595 1115.12 128.307H1112.65C1111.08 120.222 1108.15 114.281 1103.86 110.486C1099.65 106.69 1094.13 104.793 1087.28 104.793C1081.91 104.793 1076.96 106.03 1072.43 108.506C1067.89 110.981 1064.26 115.106 1061.53 120.882C1058.89 126.657 1057.57 134.495 1057.57 144.396C1057.57 149.017 1058.11 153.555 1059.18 158.01C1060.34 162.383 1062.11 166.343 1064.5 169.891C1066.9 173.439 1069.95 176.286 1073.66 178.431C1077.46 180.493 1082 181.525 1087.28 181.525C1093.47 181.525 1098.79 180.04 1103.24 177.069C1107.7 174.099 1111.66 169.809 1115.12 164.198L1117.6 166.055C1113.64 173.81 1108.81 179.173 1103.12 182.144C1097.43 185.031 1090.91 186.475 1083.56 186.475ZM1144.83 185.238C1143.1 185.238 1141.2 184.949 1139.14 184.371C1137.16 183.876 1135.22 182.969 1133.32 181.649C1131.42 180.328 1129.86 178.554 1128.62 176.327C1127.46 174.099 1126.89 171.294 1126.89 167.911C1126.89 163.373 1128.33 159.867 1131.22 157.391C1134.19 154.916 1138.07 153.183 1142.85 152.193C1147.72 151.121 1152.92 150.584 1158.44 150.584H1162.16C1162.16 144.809 1161.58 140.436 1160.42 137.466C1159.27 134.413 1157.7 132.35 1155.72 131.278C1153.82 130.123 1151.64 129.545 1149.16 129.545C1145.7 129.545 1142.77 130.288 1140.38 131.773C1138.07 133.258 1136.46 136.022 1135.55 140.065H1129.98C1129.98 137.919 1130.1 135.939 1130.35 134.124C1130.6 132.226 1131.51 130.494 1133.07 128.926C1134.64 127.359 1137.2 126.245 1140.75 125.585C1144.29 124.925 1147.92 124.595 1151.64 124.595C1154.44 124.595 1157.12 124.925 1159.68 125.585C1162.32 126.245 1164.63 127.482 1166.61 129.297C1168.68 131.03 1170.28 133.629 1171.44 137.094C1172.68 140.477 1173.3 144.974 1173.3 150.584V184H1167.11L1162.78 178.431H1162.16C1160.92 179.998 1158.9 181.525 1156.09 183.01C1153.29 184.495 1149.53 185.238 1144.83 185.238ZM1150.4 179.668C1153.45 179.668 1155.85 178.926 1157.58 177.441C1159.39 175.873 1160.92 174.14 1162.16 172.243V155.535H1158.44C1152.26 155.535 1147.39 156.69 1143.84 159C1140.38 161.228 1138.64 164.198 1138.64 167.911C1138.64 171.954 1139.84 174.924 1142.23 176.822C1144.62 178.72 1147.35 179.668 1150.4 179.668ZM1192.29 184V140.683C1192.29 136.971 1191.75 134 1190.68 131.773C1189.69 129.462 1187.34 128.307 1183.62 128.307H1181.77V125.832H1192.29C1195.17 125.832 1197.4 126.203 1198.97 126.946C1200.62 127.689 1201.78 129.132 1202.44 131.278C1203.1 133.423 1203.43 136.558 1203.43 140.683V172.861L1229.42 125.832H1240.55V184H1229.42V136.971L1203.43 184H1192.29ZM1216.42 119.52C1212.38 119.52 1209.08 118.571 1206.52 116.674C1203.96 114.776 1201.9 112.425 1200.33 109.619L1202.81 107.763C1204.37 109.331 1206.15 110.568 1208.13 111.476C1210.19 112.301 1212.95 112.713 1216.42 112.713C1219.89 112.713 1222.61 112.301 1224.59 111.476C1226.65 110.568 1228.47 109.331 1230.03 107.763L1232.51 109.619C1230.94 112.425 1228.88 114.776 1226.32 116.674C1223.76 118.571 1220.46 119.52 1216.42 119.52ZM1251.43 203.183V183.381C1251.43 182.144 1251.84 181.112 1252.66 180.287C1253.49 179.462 1254.52 179.05 1255.76 179.05H1259.47C1261.37 174.924 1262.85 170.634 1263.93 166.178C1265 161.64 1265.74 157.185 1266.15 152.812C1266.65 148.439 1266.9 144.396 1266.9 140.683C1266.9 136.971 1266.36 134 1265.29 131.773C1264.3 129.462 1261.95 128.307 1258.23 128.307V125.832H1307.74V179.05H1312.69C1313.93 179.05 1314.96 179.462 1315.78 180.287C1316.61 181.112 1317.02 182.144 1317.02 183.381V203.183H1312.07C1311.66 198.563 1310.91 194.85 1309.84 192.044C1308.85 189.239 1307.49 187.177 1305.76 185.856C1304.02 184.619 1301.8 184 1299.07 184H1269.37C1266.73 184 1264.5 184.619 1262.69 185.856C1260.96 187.177 1259.59 189.239 1258.6 192.044C1257.61 194.85 1256.87 198.563 1256.38 203.183H1251.43ZM1268.13 179.05H1296.6V130.783H1274.94C1274.94 141.344 1274.4 150.502 1273.33 158.258C1272.34 165.931 1270.61 172.861 1268.13 179.05ZM1330.67 184V140.683C1330.67 136.971 1330.14 134 1329.06 131.773C1328.07 129.462 1325.72 128.307 1322.01 128.307H1320.15V125.832H1330.67C1333.56 125.832 1335.79 126.203 1337.36 126.946C1339.01 127.689 1340.16 129.132 1340.82 131.278C1341.48 133.423 1341.81 136.558 1341.81 140.683V172.861L1367.8 125.832H1378.94V184H1367.8V136.971L1341.81 184H1330.67ZM1419.39 185.238C1413.62 185.238 1408.79 183.876 1404.91 181.153C1401.12 178.431 1398.23 174.759 1396.25 170.139C1394.35 165.518 1393.4 160.444 1393.4 154.916C1393.4 149.306 1394.39 144.231 1396.37 139.693C1398.35 135.073 1401.2 131.401 1404.91 128.679C1408.62 125.956 1413.04 124.595 1418.15 124.595C1423.76 124.595 1428.38 125.667 1432.01 127.812C1435.73 129.875 1438.45 132.928 1440.18 136.971C1442 141.014 1442.91 145.964 1442.91 151.822L1442.66 156.772H1405.16C1405.16 163.538 1406.6 169.149 1409.49 173.604C1412.46 178.059 1416.59 180.287 1421.87 180.287C1425.91 180.287 1429.25 179.421 1431.89 177.688C1434.61 175.956 1437.05 173.522 1439.19 170.386L1441.67 172.243C1439.85 175.378 1437.79 177.894 1435.48 179.792C1433.25 181.69 1430.78 183.092 1428.05 184C1425.41 184.825 1422.53 185.238 1419.39 185.238ZM1405.16 151.822H1431.15C1431.15 144.644 1430.08 139.157 1427.93 135.362C1425.79 131.484 1422.53 129.545 1418.15 129.545C1415.68 129.545 1413.45 130.535 1411.47 132.515C1409.57 134.413 1408.05 137.053 1406.89 140.436C1405.74 143.736 1405.16 147.532 1405.16 151.822ZM1458.41 184V140.683C1458.41 136.971 1457.87 134 1456.8 131.773C1455.81 129.462 1453.46 128.307 1449.75 128.307H1448.51V125.832H1478.83C1482.96 125.832 1486.79 126.286 1490.34 127.194C1493.97 128.101 1496.86 129.627 1499 131.773C1501.23 133.918 1502.35 136.888 1502.35 140.683C1502.35 144.149 1501.36 146.954 1499.38 149.099C1497.48 151.244 1494.34 152.771 1489.97 153.678C1494.67 154.586 1498.3 156.277 1500.86 158.753C1503.5 161.145 1504.82 164.198 1504.82 167.911C1504.82 172.036 1503.67 175.295 1501.36 177.688C1499.13 179.998 1496.03 181.649 1492.07 182.639C1488.2 183.546 1483.78 184 1478.83 184H1458.41ZM1477.59 179.668C1482.54 179.668 1486.34 178.72 1488.98 176.822C1491.7 174.924 1493.06 171.954 1493.06 167.911C1493.06 164.033 1491.66 161.104 1488.86 159.124C1486.13 157.144 1481.97 156.154 1476.36 156.154H1469.55V178.431C1470.46 178.761 1471.69 179.05 1473.26 179.297C1474.91 179.545 1476.36 179.668 1477.59 179.668ZM1469.55 151.203H1476.36C1480.73 151.203 1484.19 150.337 1486.75 148.604C1489.31 146.789 1490.59 144.149 1490.59 140.683C1490.59 137.218 1489.35 134.619 1486.88 132.887C1484.4 131.071 1481.31 130.164 1477.59 130.164C1476.36 130.164 1474.91 130.288 1473.26 130.535C1471.69 130.783 1470.46 131.071 1469.55 131.401V151.203Z" fill="#373737"/>
<path d="M643.752 403.475C635.914 403.475 629.107 401.619 623.331 397.906C617.638 394.111 613.224 389.036 610.089 382.683C606.954 376.248 605.386 369.152 605.386 361.396C605.386 355.208 606.376 349.433 608.356 344.07C610.336 338.624 613.1 333.88 616.648 329.837C620.196 325.794 624.28 322.618 628.901 320.308C633.521 317.997 638.471 316.842 643.752 316.842C650.6 316.842 656.499 317.832 661.45 319.813C666.4 321.71 669.989 324.02 672.217 326.743C673.785 328.641 674.692 331.281 674.94 334.664C675.187 338.047 675.311 341.595 675.311 345.307H672.836C671.268 337.222 668.339 331.281 664.049 327.486C659.841 323.69 654.313 321.793 647.465 321.793C642.102 321.793 637.151 323.03 632.613 325.506C628.075 327.981 624.445 332.106 621.722 337.882C619.082 343.657 617.762 351.495 617.762 361.396C617.762 366.017 618.298 370.555 619.371 375.01C620.526 379.383 622.3 383.343 624.693 386.891C627.085 390.439 630.138 393.286 633.851 395.431C637.646 397.493 642.184 398.525 647.465 398.525C653.653 398.525 658.975 397.04 663.43 394.069C667.885 391.099 671.846 386.809 675.311 381.198L677.786 383.055C673.826 390.81 668.999 396.173 663.306 399.144C657.613 402.031 651.095 403.475 643.752 403.475ZM693.014 424.515V357.683C693.014 353.971 692.477 351 691.405 348.773C690.415 346.462 688.063 345.307 684.35 345.307H681.875V342.832H693.014C696.149 342.832 698.501 343.286 700.068 344.194C701.718 345.101 702.873 346.504 703.534 348.401C705.184 346.751 707.411 345.225 710.217 343.822C713.022 342.337 716.57 341.595 720.86 341.595C725.811 341.595 729.936 342.956 733.236 345.679C736.537 348.401 739.012 352.073 740.662 356.693C742.312 361.231 743.137 366.306 743.137 371.916C743.137 377.444 742.271 382.518 740.538 387.139C738.888 391.759 736.33 395.431 732.865 398.153C729.4 400.876 724.985 402.238 719.622 402.238C716.157 402.238 713.187 401.825 710.712 401C708.236 400.257 706.05 399.432 704.152 398.525V424.515H693.014ZM715.91 397.287C719.622 397.287 722.593 396.173 724.82 393.946C727.131 391.635 728.781 388.583 729.771 384.787C730.844 380.909 731.38 376.619 731.38 371.916C731.38 367.131 730.885 362.84 729.895 359.045C728.905 355.25 727.337 352.238 725.192 350.01C723.129 347.7 720.448 346.545 717.147 346.545C713.764 346.545 711.042 347.329 708.979 348.896C706.916 350.382 705.307 352.073 704.152 353.971V393.574C706.05 394.482 707.989 395.348 709.969 396.173C712.032 396.916 714.012 397.287 715.91 397.287ZM780.4 402.238C774.624 402.238 769.798 400.876 765.92 398.153C762.125 395.431 759.237 391.759 757.257 387.139C755.359 382.518 754.41 377.444 754.41 371.916C754.41 366.306 755.4 361.231 757.38 356.693C759.361 352.073 762.207 348.401 765.92 345.679C769.633 342.956 774.047 341.595 779.162 341.595C784.773 341.595 789.393 342.667 793.024 344.812C796.736 346.875 799.459 349.928 801.192 353.971C803.007 358.014 803.915 362.964 803.915 368.822L803.667 373.772H766.167C766.167 380.538 767.611 386.149 770.499 390.604C773.469 395.059 777.595 397.287 782.875 397.287C786.918 397.287 790.26 396.421 792.9 394.688C795.623 392.956 798.057 390.522 800.202 387.386L802.677 389.243C800.862 392.378 798.799 394.894 796.489 396.792C794.261 398.69 791.786 400.092 789.063 401C786.423 401.825 783.535 402.238 780.4 402.238ZM766.167 368.822H792.157C792.157 361.644 791.085 356.157 788.94 352.362C786.794 348.484 783.535 346.545 779.162 346.545C776.687 346.545 774.459 347.535 772.479 349.515C770.582 351.413 769.055 354.053 767.9 357.436C766.745 360.736 766.167 364.532 766.167 368.822ZM810.164 420.183V400.381C810.164 399.144 810.576 398.112 811.401 397.287C812.226 396.462 813.258 396.05 814.495 396.05H818.208C820.106 391.924 821.591 387.634 822.664 383.178C823.736 378.64 824.479 374.185 824.891 369.812C825.386 365.439 825.634 361.396 825.634 357.683C825.634 353.971 825.098 351 824.025 348.773C823.035 346.462 820.683 345.307 816.971 345.307V342.832H866.475V396.05H871.426C872.663 396.05 873.695 396.462 874.52 397.287C875.345 398.112 875.757 399.144 875.757 400.381V420.183H870.807C870.394 415.563 869.652 411.85 868.579 409.044C867.589 406.239 866.228 404.177 864.495 402.856C862.762 401.619 860.535 401 857.812 401H828.109C825.469 401 823.241 401.619 821.426 402.856C819.693 404.177 818.332 406.239 817.342 409.044C816.352 411.85 815.609 415.563 815.114 420.183H810.164ZM826.871 396.05H855.337V347.783H833.678C833.678 358.344 833.142 367.502 832.069 375.258C831.079 382.931 829.347 389.861 826.871 396.05ZM889.41 401V357.683C889.41 353.971 888.873 351 887.801 348.773C886.811 346.462 884.459 345.307 880.746 345.307H878.89V342.832H889.41C892.297 342.832 894.525 343.203 896.093 343.946C897.743 344.689 898.898 346.132 899.558 348.278C900.218 350.423 900.548 353.558 900.548 357.683V369.441H925.3V342.832H936.439V386.149C936.439 389.861 936.934 392.873 937.924 395.183C938.997 397.411 941.389 398.525 945.102 398.525H946.959V401H936.439C933.551 401 931.282 400.629 929.632 399.886C928.064 399.144 926.951 397.7 926.291 395.554C925.63 393.409 925.3 390.274 925.3 386.149V374.391H900.548V401H889.41ZM956.084 402.238C954.847 402.238 953.609 402.114 952.371 401.866C951.216 401.619 950.185 401.33 949.277 401V398.525C952.165 398.195 954.517 396.998 956.332 394.936C958.147 392.873 959.714 390.769 961.035 388.624L968.46 375.629C964.747 374.969 961.447 373.277 958.559 370.555C955.672 367.832 954.228 364.16 954.228 359.54C954.228 355.25 955.342 351.908 957.569 349.515C959.88 347.04 962.891 345.307 966.604 344.317C970.399 343.327 974.525 342.832 978.98 342.832H1008.06V345.307H1007.57C1004.1 345.39 1001.88 346.586 1000.89 348.896C999.896 351.124 999.401 354.053 999.401 357.683V401H988.262V376.248H978.609L971.183 391.099C969.285 394.812 967.181 397.617 964.871 399.515C962.561 401.33 959.632 402.238 956.084 402.238ZM980.218 371.916C981.455 371.916 982.858 371.792 984.426 371.545C986.076 371.297 987.355 371.008 988.262 370.678V348.401C987.355 348.071 986.076 347.783 984.426 347.535C982.858 347.288 981.455 347.164 980.218 347.164C975.845 347.164 972.379 348.154 969.822 350.134C967.264 352.032 965.985 355.167 965.985 359.54C965.985 363.913 967.264 367.089 969.822 369.07C972.379 370.967 975.845 371.916 980.218 371.916ZM1019.17 402.238C1017.94 402.238 1016.7 402.114 1015.46 401.866C1014.31 401.619 1013.27 401.33 1012.37 401V398.525C1015.25 398.195 1017.61 396.998 1019.42 394.936C1021.24 392.873 1022.8 390.769 1024.12 388.624L1031.55 375.629C1027.84 374.969 1024.54 373.277 1021.65 370.555C1018.76 367.832 1017.32 364.16 1017.32 359.54C1017.32 355.25 1018.43 351.908 1020.66 349.515C1022.97 347.04 1025.98 345.307 1029.69 344.317C1033.49 343.327 1037.61 342.832 1042.07 342.832H1071.15V345.307H1070.66C1067.19 345.39 1064.97 346.586 1063.98 348.896C1062.99 351.124 1062.49 354.053 1062.49 357.683V401H1051.35V376.248H1041.7L1034.27 391.099C1032.37 394.812 1030.27 397.617 1027.96 399.515C1025.65 401.33 1022.72 402.238 1019.17 402.238ZM1043.31 371.916C1044.54 371.916 1045.95 371.792 1047.51 371.545C1049.17 371.297 1050.44 371.008 1051.35 370.678V348.401C1050.44 348.071 1049.17 347.783 1047.51 347.535C1045.95 347.288 1044.54 347.164 1043.31 347.164C1038.93 347.164 1035.47 348.154 1032.91 350.134C1030.35 352.032 1029.07 355.167 1029.07 359.54C1029.07 363.913 1030.35 367.089 1032.91 369.07C1035.47 370.967 1038.93 371.916 1043.31 371.916ZM1114.94 401V357.683C1114.94 353.971 1114.4 351 1113.33 348.773C1112.34 346.462 1109.99 345.307 1106.27 345.307H1104.42V342.832H1114.94C1117.82 342.832 1120.05 343.203 1121.62 343.946C1123.27 344.689 1124.42 346.132 1125.08 348.278C1125.74 350.423 1126.07 353.558 1126.07 357.683V396.05H1145.26V342.832H1156.4V396.05H1175.58V342.832H1186.72V401H1114.94ZM1249.99 402.238C1246.86 402.238 1243.77 401.454 1240.71 399.886C1237.74 398.319 1234.85 395.802 1232.05 392.337L1217.82 374.391V401H1206.68V357.683C1206.68 353.971 1206.14 351 1205.07 348.773C1204.08 346.462 1201.73 345.307 1198.01 345.307H1195.54V342.832H1206.68C1209.57 342.832 1211.79 343.203 1213.36 343.946C1215.01 344.689 1216.17 346.132 1216.83 348.278C1217.49 350.423 1217.82 353.558 1217.82 357.683V372.535L1233.29 350.877C1235.1 348.401 1237.21 346.462 1239.6 345.06C1242.07 343.575 1245.33 342.832 1249.38 342.832H1252.47V345.926C1250.57 345.926 1248.63 346.339 1246.65 347.164C1244.67 347.906 1242.9 349.35 1241.33 351.495L1227.72 370.678L1241.95 388.624C1244.1 391.429 1246.28 393.698 1248.51 395.431C1250.82 397.163 1253.38 398.236 1256.18 398.649V401C1255.52 401.33 1254.61 401.619 1253.46 401.866C1252.39 402.114 1251.23 402.238 1249.99 402.238ZM1285.51 402.238C1279.73 402.238 1274.82 400.876 1270.78 398.153C1266.74 395.431 1263.64 391.759 1261.5 387.139C1259.35 382.518 1258.28 377.444 1258.28 371.916C1258.28 366.306 1259.35 361.231 1261.5 356.693C1263.64 352.073 1266.74 348.401 1270.78 345.679C1274.82 342.956 1279.73 341.595 1285.51 341.595C1291.28 341.595 1296.19 342.956 1300.23 345.679C1304.28 348.401 1307.37 352.073 1309.52 356.693C1311.66 361.231 1312.73 366.306 1312.73 371.916C1312.73 377.444 1311.66 382.518 1309.52 387.139C1307.37 391.759 1304.28 395.431 1300.23 398.153C1296.19 400.876 1291.28 402.238 1285.51 402.238ZM1285.51 397.287C1288.64 397.287 1291.36 396.173 1293.67 393.946C1295.98 391.635 1297.76 388.583 1299 384.787C1300.32 380.909 1300.98 376.619 1300.98 371.916C1300.98 367.131 1300.32 362.84 1299 359.045C1297.76 355.25 1295.98 352.238 1293.67 350.01C1291.36 347.7 1288.64 346.545 1285.51 346.545C1282.45 346.545 1279.73 347.7 1277.34 350.01C1275.03 352.238 1273.21 355.25 1271.89 359.045C1270.65 362.84 1270.04 367.131 1270.04 371.916C1270.04 376.619 1270.65 380.909 1271.89 384.787C1273.21 388.583 1275.03 391.635 1277.34 393.946C1279.73 396.173 1282.45 397.287 1285.51 397.287ZM1322.86 402.238C1322.2 402.238 1321.16 402.114 1319.76 401.866C1318.44 401.619 1317.45 401.371 1316.79 401.124V398.03C1318.77 398.03 1320.71 397.535 1322.61 396.545C1324.59 395.472 1326.32 393.533 1327.81 390.728C1329.37 387.84 1330.61 383.756 1331.52 378.475C1332.43 373.112 1332.88 366.182 1332.88 357.683C1332.88 353.971 1332.34 351 1331.27 348.773C1330.28 346.462 1327.89 345.307 1324.09 345.307V342.832H1374.34V401H1363.2V347.783H1341.42V357.683C1341.42 366.924 1340.88 374.474 1339.81 380.332C1338.82 386.19 1337.42 390.728 1335.6 393.946C1333.87 397.081 1331.89 399.267 1329.66 400.505C1327.44 401.66 1325.17 402.238 1322.86 402.238ZM1406.01 402.238C1404.28 402.238 1402.38 401.949 1400.32 401.371C1398.34 400.876 1396.4 399.969 1394.5 398.649C1392.6 397.328 1391.04 395.554 1389.8 393.327C1388.64 391.099 1388.07 388.294 1388.07 384.911C1388.07 380.373 1389.51 376.867 1392.4 374.391C1395.37 371.916 1399.25 370.183 1404.03 369.193C1408.9 368.121 1414.1 367.584 1419.62 367.584H1423.34C1423.34 361.809 1422.76 357.436 1421.6 354.466C1420.45 351.413 1418.88 349.35 1416.9 348.278C1415 347.123 1412.82 346.545 1410.34 346.545C1406.88 346.545 1403.95 347.288 1401.56 348.773C1399.25 350.258 1397.64 353.022 1396.73 357.065H1391.16C1391.16 354.919 1391.28 352.939 1391.53 351.124C1391.78 349.226 1392.69 347.494 1394.25 345.926C1395.82 344.359 1398.38 343.245 1401.93 342.585C1405.47 341.925 1409.11 341.595 1412.82 341.595C1415.62 341.595 1418.3 341.925 1420.86 342.585C1423.5 343.245 1425.81 344.482 1427.79 346.297C1429.86 348.03 1431.46 350.629 1432.62 354.094C1433.86 357.477 1434.48 361.974 1434.48 367.584V401H1428.29L1423.96 395.431H1423.34C1422.1 396.998 1420.08 398.525 1417.27 400.01C1414.47 401.495 1410.71 402.238 1406.01 402.238ZM1411.58 396.668C1414.63 396.668 1417.03 395.926 1418.76 394.441C1420.57 392.873 1422.1 391.14 1423.34 389.243V372.535H1419.62C1413.44 372.535 1408.57 373.69 1405.02 376C1401.56 378.228 1399.82 381.198 1399.82 384.911C1399.82 388.954 1401.02 391.924 1403.41 393.822C1405.8 395.72 1408.53 396.668 1411.58 396.668ZM1546.04 402.238L1492.82 336.025V401H1487.87V334.169C1487.87 330.456 1487.09 327.486 1485.52 325.258C1483.95 322.948 1481.02 321.793 1476.73 321.793H1475.5V319.317H1483.54C1487.58 319.317 1490.88 319.978 1493.44 321.298C1496.08 322.618 1498.35 324.433 1500.25 326.743L1543.57 380.579V319.317H1548.52V402.238H1546.04ZM1558.42 362.634V357.683H1588.12V362.634H1558.42ZM1573.27 351.495C1567.57 351.495 1563.16 350.052 1560.03 347.164C1556.89 344.194 1555.32 340.068 1555.32 334.788C1555.32 329.507 1556.89 325.423 1560.03 322.535C1563.16 319.565 1567.57 318.08 1573.27 318.08C1578.96 318.08 1583.38 319.565 1586.51 322.535C1589.65 325.423 1591.21 329.507 1591.21 334.788C1591.21 340.068 1589.65 344.194 1586.51 347.164C1583.38 350.052 1578.96 351.495 1573.27 351.495ZM1573.27 347.164C1576.82 347.164 1579.46 346.132 1581.19 344.07C1582.92 342.007 1583.79 338.913 1583.79 334.788C1583.79 330.662 1582.92 327.568 1581.19 325.506C1579.46 323.443 1576.82 322.411 1573.27 322.411C1569.72 322.411 1567.08 323.443 1565.35 325.506C1563.61 327.568 1562.75 330.662 1562.75 334.788C1562.75 338.913 1563.61 342.007 1565.35 344.07C1567.08 346.132 1569.72 347.164 1573.27 347.164ZM1624.19 403.475C1621.55 403.475 1619.07 403.269 1616.76 402.856C1614.45 402.526 1612.31 402.073 1610.33 401.495C1608.43 400.917 1606.66 400.34 1605.01 399.762L1605.62 397.287C1606.94 397.452 1608.43 397.658 1610.08 397.906C1611.81 398.071 1613.67 398.236 1615.65 398.401C1617.63 398.484 1619.65 398.525 1621.71 398.525C1629.14 398.525 1634.58 395.678 1638.05 389.985C1641.6 384.21 1643.37 376.536 1643.37 366.966C1641.23 368.533 1638.67 369.853 1635.7 370.926C1632.81 371.999 1629.18 372.535 1624.81 372.535C1619.03 372.535 1614.33 371.38 1610.7 369.07C1607.07 366.759 1604.39 363.542 1602.65 359.416C1600.92 355.208 1600.06 350.299 1600.06 344.689C1600.06 339.903 1601 335.406 1602.9 331.199C1604.88 326.991 1607.85 323.567 1611.81 320.926C1615.77 318.204 1620.72 316.842 1626.66 316.842C1636.57 316.842 1643.78 320.514 1648.32 327.857C1652.86 335.2 1655.13 345.967 1655.13 360.159C1655.13 374.515 1652.61 385.324 1647.58 392.584C1642.55 399.845 1634.75 403.475 1624.19 403.475ZM1628.52 367.584C1630.67 367.584 1632.56 367.337 1634.21 366.842C1635.95 366.347 1637.56 365.645 1639.04 364.738C1640.53 363.748 1641.97 362.634 1643.37 361.396C1643.37 351.908 1642.67 344.276 1641.27 338.5C1639.87 332.642 1637.89 328.393 1635.33 325.753C1632.85 323.113 1629.96 321.793 1626.66 321.793C1623.53 321.793 1620.85 322.907 1618.62 325.134C1616.39 327.279 1614.7 330.085 1613.55 333.55C1612.39 337.015 1611.81 340.728 1611.81 344.689C1611.81 351.784 1613.13 357.395 1615.77 361.52C1618.41 365.563 1622.66 367.584 1628.52 367.584ZM1690.54 403.475C1687.9 403.475 1685.43 403.269 1683.12 402.856C1680.81 402.526 1678.66 402.073 1676.68 401.495C1674.78 400.917 1673.01 400.34 1671.36 399.762L1671.98 397.287C1673.3 397.452 1674.78 397.658 1676.43 397.906C1678.17 398.071 1680.02 398.236 1682 398.401C1683.98 398.484 1686 398.525 1688.07 398.525C1695.49 398.525 1700.94 395.678 1704.4 389.985C1707.95 384.21 1709.72 376.536 1709.72 366.966C1707.58 368.533 1705.02 369.853 1702.05 370.926C1699.16 371.999 1695.53 372.535 1691.16 372.535C1685.38 372.535 1680.68 371.38 1677.05 369.07C1673.42 366.759 1670.74 363.542 1669.01 359.416C1667.27 355.208 1666.41 350.299 1666.41 344.689C1666.41 339.903 1667.36 335.406 1669.25 331.199C1671.23 326.991 1674.2 323.567 1678.17 320.926C1682.13 318.204 1687.08 316.842 1693.02 316.842C1702.92 316.842 1710.14 320.514 1714.67 327.857C1719.21 335.2 1721.48 345.967 1721.48 360.159C1721.48 374.515 1718.97 385.324 1713.93 392.584C1708.9 399.845 1701.1 403.475 1690.54 403.475ZM1694.87 367.584C1697.02 367.584 1698.92 367.337 1700.57 366.842C1702.3 366.347 1703.91 365.645 1705.39 364.738C1706.88 363.748 1708.32 362.634 1709.72 361.396C1709.72 351.908 1709.02 344.276 1707.62 338.5C1706.22 332.642 1704.24 328.393 1701.68 325.753C1699.2 323.113 1696.32 321.793 1693.02 321.793C1689.88 321.793 1687.2 322.907 1684.97 325.134C1682.74 327.279 1681.05 330.085 1679.9 333.55C1678.74 337.015 1678.17 340.728 1678.17 344.689C1678.17 351.784 1679.49 357.395 1682.13 361.52C1684.77 365.563 1689.02 367.584 1694.87 367.584Z" fill="#373737"/>
<rect x="607" y="260" width="1087" height="10" rx="4" fill="#373737"/>
<defs>
<clipPath id="clip0_41_17">
<rect width="512" height="512" fill="white"/>
</clipPath>
</defs>
</svg>
